<?xml version="1.0" encoding="utf-8" ?>
<svg baseProfile="full" height="534" version="1.1" width="300" xmlns="http://www.w3.org/2000/svg" xmlns:ev="http://www.w3.org/2001/xml-events" xmlns:xlink="http://www.w3.org/1999/xlink"><defs><style type="text/css"><![CDATA[
* { stroke: black; stroke-width: 0.5px; }
#T1 { fill: yellow; } 
#T2 { fill: red; } 
#T3 { fill: #FFFFFF; } 
#T4 { fill: #FFFFFF; } 
]]></style></defs><rect fill="white" height="534" width="300" x="0" y="0" /><polyline points="100,27.245344800201035 130,27.245344800201035" stroke="black" stroke-width="2" /><polygon fill="black" points="130,27.245344800201035 130,31.245344800201035 140,27.245344800201035 130,23.245344800201035" /><polyline points="100,139.0 130,139.0" stroke="black" stroke-width="2" /><polygon fill="black" points="130,139.0 130,143.0 140,139.0 130,135.0" /><polyline points="100,299.0 130,299.0" stroke="black" stroke-width="2" /><polygon fill="black" points="130,299.0 130,303.0 140,299.0 130,295.0" /><polyline points="100,459.0 130,459.0" stroke="black" stroke-width="2" /><polygon fill="black" points="130,459.0 130,463.0 140,459.0 130,455.0" /><g id="T1"><polygon points="299.3246237054434,54.0 242.54566359657696,54.000000000000014 225.0,7.105427357601002e-15" /><polygon points="0.0,43.95582294432434 45.99999999999999,10.534866656077746 91.99999999999999,43.95582294432434" /><polygon points="225.0,64.0 243.61624205200187,121.29490168751578 194.87828761706592,156.70509831248424" /><polygon points="173.38567798233098,459.0 252.24534480020105,459.0 276.614322017669,384.0" /><polygon points="173.38567798233098,459.0 252.24534480020105,459.0 276.614322017669,534.0" /></g><g id="T2"><polygon points="225.0,7.105427357601002e-15 150.67537629455663,53.99999999999999 242.54566359657693,54.00000000000001" /><polygon points="194.87828761706592,156.70509831248424 273.737954434936,214.00000000000003 176.26204556506406,214.00000000000003" /><polygon points="194.87828761706592,156.70509831248424 273.737954434936,214.0 243.6162420520019,121.29490168751576" /><polygon points="16.107387946572615,185.0 46.0,93.0 75.89261205342738,185.0" /><polygon points="288.798810626403,299.0 161.201189373597,299.0 264.429833408935,224.0" /><polygon points="288.798810626403,299.0 161.201189373597,299.0 264.429833408935,374.0" /></g><g id="T3"><polygon points="6.8700628158061505,299.0 70.18363115748014,253.0 85.12993718419382,299.0 70.18363115748014,345.0 6.8700628158061505,299.0" /></g><g id="T4"><polygon points="14.343215829162986,459.0 77.65678417083697,413.0 60.343215829162986,459.0 77.65678417083697,505.0 14.343215829162986,459.0" /></g></svg>