<?xml version="1.0" encoding="utf-8" ?>
<svg baseProfile="full" height="534.4906896004021" version="1.1" width="300" xmlns="http://www.w3.org/2000/svg" xmlns:ev="http://www.w3.org/2001/xml-events" xmlns:xlink="http://www.w3.org/1999/xlink"><defs><style type="text/css"><![CDATA[
* { stroke: black; stroke-width: 0.5px; }
#T1 { fill: yellow; } 
#T2 { fill: red; } 
#T3 { fill: #FFFFFF; } 
#T4 { fill: #FFFFFF; } 
]]></style></defs><rect fill="white" height="534.4906896004021" width="300" x="0" y="0" /><polyline points="100,27.245344800201035 130,27.245344800201035" stroke="black" stroke-width="2" /><polygon fill="black" points="130,27.245344800201035 130,31.245344800201035 140,27.245344800201035 130,23.245344800201035" /><polyline points="100,139.49068960040208 130,139.49068960040208" stroke="black" stroke-width="2" /><polygon fill="black" points="130,139.49068960040208 130,143.49068960040208 140,139.49068960040208 130,135.49068960040208" /><polyline points="100,299.4906896004021 130,299.4906896004021" stroke="black" stroke-width="2" /><polygon fill="black" points="130,299.4906896004021 130,303.4906896004021 140,299.4906896004021 130,295.4906896004021" /><polyline points="100,459.4906896004021 130,459.4906896004021" stroke="black" stroke-width="2" /><polygon fill="black" points="130,459.4906896004021 130,463.4906896004021 140,459.4906896004021 130,455.4906896004021" /><g id="T1"><polygon points="300.0,54.49068960040208 242.7050983124842,54.49068960040209 225.0,2.1316282072803006e-14" /><polygon points="1.4210854715202004e-14,44.083893921935484 46.352549156242134,10.40679567846658 92.70509831248425,44.083893921935484" /><polygon points="225.0,64.49068960040208 243.61624205200187,121.78559128791785 194.87828761706592,157.19578791288632" /><polygon points="173.38567798233098,459.4906896004021 252.24534480020105,459.4906896004021 276.614322017669,384.4906896004021" /><polygon points="173.38567798233098,459.4906896004021 252.24534480020105,459.4906896004021 276.614322017669,534.4906896004021" /></g><g id="T2"><polygon points="225.0,2.1316282072803006e-14 150.0,54.49068960040207 242.7050983124842,54.49068960040209" /><polygon points="194.87828761706592,157.19578791288632 273.737954434936,214.4906896004021 176.26204556506406,214.4906896004021" /><polygon points="194.87828761706592,157.19578791288632 273.737954434936,214.49068960040208 243.6162420520019,121.78559128791784" /><polygon points="16.230836773308013,185.8432387566442 46.35254915624211,93.13814044415997 76.47426153917621,185.8432387566442" /><polygon points="288.798810626403,299.4906896004021 161.201189373597,299.4906896004021 264.429833408935,224.4906896004021" /><polygon points="288.798810626403,299.4906896004021 161.201189373597,299.4906896004021 264.429833408935,374.4906896004021" /></g><g id="T3"><polygon points="6.922715747307109,299.4906896004021 70.72152637371012,253.13814044416 85.78238256517716,299.4906896004021 70.72152637371012,345.8432387566442 6.922715747307109,299.4906896004021" /></g><g id="T4"><polygon points="14.453143843040621,459.4906896004021 78.25195446944363,413.13814044416 60.80569299928274,459.4906896004021 78.25195446944363,505.8432387566442 14.453143843040621,459.4906896004021" /></g></svg>