<?xml version="1.0" encoding="utf-8" ?>
<svg baseProfile="full" height="600" version="1.1" width="600" xmlns="http://www.w3.org/2000/svg" xmlns:ev="http://www.w3.org/2001/xml-events" xmlns:xlink="http://www.w3.org/1999/xlink"><defs><style type="text/css"><![CDATA[
* { stroke: black; stroke-width: 0.5px; }
#T1 { fill: #6C3CC2; } 
#T2 { fill: #D9F8D2; } 
#T3 { fill: #E5927E; } 
#T4 { fill: #E71221; } 
#T5 { fill: #FFFFFF; } 
#T6 { fill: #FFFFFF; } 
]]></style></defs><g id="T1"><polygon points="525.0735301226779,300.0 548.0844707845424,229.1796067500631 487.8410460186742,185.41019662496842" /><polygon points="330.12171238293416,300.0 404.58668059094157,300.0 427.5976212528061,229.1796067500631" /><polygon points="525.0735301226779,300.0 548.0844707845424,370.8203932499369 487.8410460186742,414.5898033750316" /><polygon points="330.12171238293416,300.0 404.58668059094157,300.0 427.5976212528061,370.8203932499369" /><polygon points="390.36513714880226,485.4101966249684 464.8301053568097,485.4101966249685 487.8410460186742,414.5898033750315" /><polygon points="330.1217123829341,300.0 353.1326530447986,370.8203932499369 427.597621252806,370.8203932499369" /><polygon points="390.3651371488023,485.4101966249684 330.12171238293416,529.179606750063 269.87828761706595,485.4101966249685" /><polygon points="330.1217123829341,300.0 353.1326530447986,370.82039324993696 292.8892282789304,414.5898033750316" /><polygon points="172.40237874719406,414.5898033750315 195.41331940905852,485.4101966249684 269.87828761706595,485.4101966249685" /><polygon points="330.1217123829341,300.0 269.8782876170659,343.7694101250946 292.88922827893043,414.5898033750316" /><polygon points="172.4023787471941,414.5898033750316 112.15895398132588,370.82039324993696 135.16989464319033,300.0" /><polygon points="330.1217123829341,300.0 269.87828761706595,343.7694101250946 209.63486285119774,300.0" /><polygon points="172.40237874719404,185.41019662496845 112.15895398132582,229.1796067500631 135.16989464319028,300.0" /><polygon points="330.1217123829341,300.0 269.8782876170659,256.2305898749054 209.63486285119774,300.0" /><polygon points="172.402378747194,185.4101966249685 195.41331940905843,114.58980337503156 269.8782876170659,114.58980337503152" /><polygon points="330.1217123829341,300.0 269.8782876170659,256.2305898749054 292.8892282789304,185.41019662496845" /><polygon points="390.36513714880226,114.58980337503156 330.12171238293405,70.8203932499369 269.8782876170659,114.58980337503154" /><polygon points="330.1217123829341,300.0 353.1326530447986,229.17960675006307 292.8892282789304,185.41019662496845" /><polygon points="390.3651371488022,114.58980337503156 464.83010535680967,114.58980337503152 487.84104601867415,185.41019662496842" /><polygon points="330.1217123829341,300.0 353.1326530447986,229.1796067500631 427.597621252806,229.1796067500631" /></g><g id="T2"><polygon points="548.0844707845424,229.1796067500631 585.3169548885461,114.58980337503156 487.84104601867426,185.41019662496845" /><polygon points="487.8410460186742,185.41019662496845 525.0735301226779,300.0 427.59762125280605,229.1796067500631" /><polygon points="427.597621252806,229.1796067500631 525.0735301226779,300.0 404.5866805909415,300.0" /><polygon points="548.0844707845424,370.8203932499369 585.3169548885461,485.4101966249684 487.84104601867426,414.5898033750316" /><polygon points="487.8410460186742,414.5898033750316 525.0735301226779,300.00000000000006 427.59762125280605,370.82039324993696" /><polygon points="427.597621252806,370.82039324993696 525.0735301226779,300.0 404.5866805909415,300.00000000000006" /><polygon points="464.8301053568097,485.4101966249685 585.3169548885461,485.4101966249685 487.8410460186742,414.5898033750316" /><polygon points="487.8410460186742,414.5898033750315 390.3651371488023,485.4101966249684 427.597621252806,370.8203932499369" /><polygon points="427.597621252806,370.8203932499369 390.36513714880226,485.4101966249684 353.13265304479853,370.8203932499369" /><polygon points="330.1217123829341,529.179606750063 232.64580351306222,600.0 269.8782876170659,485.4101966249684" /><polygon points="269.8782876170659,485.4101966249684 390.36513714880226,485.4101966249684 292.8892282789304,414.5898033750315" /><polygon points="292.8892282789304,414.5898033750315 390.36513714880226,485.4101966249684 353.1326530447986,370.82039324993684" /><polygon points="195.41331940905852,485.4101966249684 232.64580351306222,600.0 269.87828761706595,485.4101966249684" /><polygon points="269.87828761706595,485.4101966249684 172.40237874719406,414.5898033750315 292.88922827893043,414.5898033750315" /><polygon points="292.88922827893043,414.5898033750315 172.40237874719406,414.5898033750315 269.87828761706595,343.7694101250946" /><polygon points="112.15895398132588,370.82039324993696 14.683045111453978,300.0000000000001 135.16989464319033,300.00000000000006" /><polygon points="135.16989464319033,300.0 172.40237874719406,414.5898033750315 209.63486285119777,300.0" /><polygon points="209.63486285119777,300.0 172.4023787471941,414.5898033750316 269.87828761706595,343.7694101250946" /><polygon points="112.15895398132582,229.1796067500631 14.683045111453922,300.0 135.1698946431903,300.0" /><polygon points="135.1698946431903,300.00000000000006 172.402378747194,185.4101966249685 209.63486285119774,300.00000000000006" /><polygon points="209.63486285119774,300.00000000000006 172.402378747194,185.4101966249685 269.87828761706595,256.2305898749054" /><polygon points="195.41331940905846,114.58980337503156 232.64580351306216,0.0 269.8782876170659,114.58980337503154" /><polygon points="269.8782876170659,114.58980337503155 172.402378747194,185.41019662496848 292.8892282789304,185.41019662496848" /><polygon points="292.8892282789304,185.41019662496848 172.402378747194,185.41019662496853 269.8782876170659,256.2305898749054" /><polygon points="330.12171238293405,70.8203932499369 232.64580351306216,0.0 269.87828761706584,114.58980337503155" /><polygon points="269.8782876170659,114.58980337503155 390.36513714880226,114.58980337503152 292.8892282789304,185.41019662496848" /><polygon points="292.8892282789304,185.41019662496848 390.36513714880226,114.58980337503155 353.1326530447986,229.1796067500631" /><polygon points="464.8301053568096,114.58980337503152 585.316954888546,114.5898033750315 487.8410460186741,185.41019662496842" /><polygon points="487.84104601867415,185.41019662496845 390.36513714880226,114.58980337503155 427.597621252806,229.1796067500631" /><polygon points="427.597621252806,229.1796067500631 390.36513714880226,114.58980337503158 353.13265304479853,229.17960675006313" /></g></svg>